<svg width="25" height="25" viewBox="0 0 40 40" fill="none" xmlns="http://www.w3.org/2000/svg">
<path d="M35.3377 19.7378L20.7984 4.35045C20.6937 4.23936 20.5694 4.15122 20.4325 4.09109C20.2956 4.03095 20.1489 4 20.0007 4C19.8525 4 19.7057 4.03095 19.5688 4.09109C19.432 4.15122 19.3076 4.23936 19.2029 4.35045L4.66361 19.7378C4.24003 20.1864 4 20.7958 4 21.4313C4 22.751 5.01306 23.8239 6.25908 23.8239H7.79102V34.8037C7.79102 35.4654 8.29579 36 8.92057 36H17.7416V27.6259H21.695V36H31.0808C31.7055 36 32.2103 35.4654 32.2103 34.8037V23.8239H33.7422C34.3423 23.8239 34.9177 23.5735 35.3412 23.1211C36.2202 22.1865 36.2202 20.6724 35.3377 19.7378Z" fill="white"/>
</svg>
